<?xml version="1.0" encoding="utf-8"?>
<!-- Generator: Adobe Illustrator 19.0.0, SVG Export Plug-In . SVG Version: 6.00 Build 0)  -->
<svg version="1.1" id="Layer_1" xmlns="http://www.w3.org/2000/svg" xmlns:xlink="http://www.w3.org/1999/xlink" x="0px" y="0px"
	 viewBox="266 -247.9 564.3 526.9" style="enable-background:new 266 -247.9 564.3 526.9;" xml:space="preserve">
<style type="text/css">
	.st0{fill:#F4EFE9;}
	.st1{fill:#FFFFFF;}
	.st2{fill:#2E3A36;}
	.st3{fill:#D5BFB8;}
	.st4{fill:#938585;}
	.st5{fill:none;stroke:#B8A392;stroke-width:4.8846;stroke-miterlimit:10;}
	.st6{fill:#273866;}
	.st7{fill:#FFC619;}
	.st8{fill:#E1E3E7;}
</style>
<g id="XMLID_2_">
	<g id="XMLID_1209_">
		<g id="XMLID_1228_">
			<path id="XMLID_1238_" class="st0" d="M281.1-0.5c47.8,14.1,187.3-40.3,243.8,1.7c21.8,6.4,28-4.1,28.3-22.5
				c-64.5-97.9-158-5.1-245.7-11.4C298.2-21.3,292.9-12.6,281.1-0.5z"/>
			<path id="XMLID_1237_" class="st1" d="M311.5-59.7c151.1,20.9,217,20.9,241.4,78.7c0-13.1,0-22.2,0.2-40.2
				c-8.5-79.5-145-84.2-189.3-126.5C352.3-130.1,320.5-72.4,311.5-59.7z"/>
			<rect id="XMLID_1236_" x="281.1" y="13.6" class="st2" width="243.4" height="29.3"/>
			<path id="XMLID_1235_" class="st3" d="M254.4,50.9c48.2,13.9,213.6-43.9,268-13.4c23.5,6.7,42.2,12.4,30.5-23.8
				c-69.5-103.5-181.1,0-275.5-6.7C271.3,21.1,264,37.4,254.4,50.9z"/>
			<g id="XMLID_1232_">
				<path class="st4" d="M532.2,10.8c0,0-0.7-0.6-2.1-1.9c-0.7-0.6-1.5-1.4-2.6-2.1c-0.5-0.4-1.1-0.8-1.7-1.3
					c-0.3-0.2-0.6-0.5-0.9-0.7c-0.3-0.2-0.7-0.4-1-0.7c-1.4-0.9-3-2-4.8-2.9c-0.9-0.5-1.8-1-2.8-1.5c-1-0.5-2-1-3.1-1.5
					c-4.3-1.9-9.3-3.8-15-5.3c-5.6-1.5-11.8-2.6-18.5-3.3c-6.6-0.7-13.7-0.8-20.9-0.5c-0.9,0-1.8,0.1-2.7,0.1
					c-0.9,0-1.8,0.2-2.7,0.2c-0.9,0.1-1.9,0.2-2.8,0.2c-0.9,0.1-1.8,0.2-2.8,0.3c-1.8,0.2-3.7,0.5-5.6,0.7c-1.9,0.2-3.8,0.6-5.6,0.9
					c-7.5,1.3-15.1,3-22.6,5c-7.5,2-15,4.1-22.4,6.4c-7.4,2.2-14.6,4.4-21.6,6.6c-14.1,4.2-27.4,7.6-39,9.6
					c-5.8,1.1-11.1,1.8-15.9,2.2c-2.4,0.3-4.6,0.3-6.7,0.5c-2.1,0.1-4,0.1-5.7,0.2c-3.4,0-6.1,0-8-0.1c-1.8-0.1-2.8-0.1-2.8-0.1
					s1,0,2.8-0.1c1.8,0,4.5-0.2,7.9-0.3c1.7-0.1,3.6-0.3,5.6-0.5c2-0.2,4.3-0.4,6.6-0.8c4.7-0.6,10-1.6,15.7-2.8
					c5.7-1.2,11.9-2.7,18.3-4.5c6.5-1.8,13.2-3.9,20.2-6.1c7-2.2,14.2-4.6,21.5-6.8c7.4-2.3,14.9-4.5,22.5-6.5
					c7.6-2,15.3-3.7,22.9-4.9c1.9-0.3,3.8-0.6,5.7-0.9c1.9-0.3,3.8-0.5,5.7-0.7c0.9-0.1,1.9-0.2,2.8-0.3c0.9-0.1,1.9-0.1,2.8-0.2
					c0.9-0.1,1.8-0.1,2.8-0.2c0.9,0,1.9-0.1,2.8-0.1c14.8-0.5,28.6,1.6,40,4.9c5.7,1.6,10.7,3.8,15,5.9c1.1,0.6,2.1,1.1,3.1,1.6
					c1,0.6,1.9,1.1,2.8,1.7c1.8,1,3.3,2.2,4.7,3.2c0.3,0.3,0.7,0.5,1,0.7c0.3,0.3,0.6,0.5,0.9,0.8c0.6,0.5,1.1,1,1.6,1.4
					c1,0.8,1.8,1.7,2.5,2.3C531.5,10.1,532.2,10.8,532.2,10.8z"/>
			</g>
			<g id="XMLID_1229_">
				<path class="st4" d="M525.7,24.3c0,0-0.8-0.5-2.4-1.4c-0.4-0.2-0.8-0.5-1.3-0.7c-0.5-0.2-1-0.5-1.6-0.8
					c-0.6-0.3-1.2-0.6-1.9-0.9c-0.7-0.3-1.4-0.6-2.2-0.9c-3.1-1.3-6.9-2.6-11.4-3.9c-4.5-1.2-9.6-2.3-15.2-3.2
					c-11.3-1.8-24.6-2.5-38.9-2c-7.1,0.3-14.5,0.9-21.9,1.8c-7.4,0.9-15,2-22.5,3.3c-7.5,1.3-15,2.7-22.4,4.2
					c-7.4,1.5-14.7,2.9-21.7,4.3c-14.1,2.7-27.4,4.9-38.8,6.1c-5.7,0.6-11,1-15.6,1.3c-2.3,0.1-4.5,0.2-6.5,0.3
					c-2,0-3.9,0.1-5.6,0.1c-3.4,0-6-0.1-7.8-0.2c-1.8-0.1-2.7-0.1-2.7-0.1s1,0,2.7-0.1c1.8,0,4.4-0.2,7.8-0.3
					c1.7-0.1,3.5-0.2,5.5-0.3c2-0.2,4.2-0.3,6.5-0.6c4.6-0.4,9.8-1.1,15.5-1.9c5.7-0.8,11.8-1.8,18.2-3c6.4-1.2,13.2-2.6,20.2-4
					c7-1.4,14.2-3.1,21.6-4.6c7.4-1.5,14.9-3,22.5-4.3c7.6-1.3,15.2-2.4,22.7-3.2c7.5-0.8,15-1.3,22.2-1.5c7.2-0.2,14.2,0,20.8,0.5
					c6.6,0.5,12.8,1.3,18.5,2.4c5.7,1.1,10.8,2.4,15.3,3.8c4.4,1.5,8.3,3,11.3,4.5c0.8,0.4,1.5,0.7,2.1,1c0.7,0.4,1.3,0.7,1.8,1
					c0.6,0.3,1.1,0.6,1.6,0.9c0.5,0.3,0.9,0.6,1.3,0.8C524.9,23.7,525.7,24.3,525.7,24.3z"/>
			</g>
		</g>
		<g id="XMLID_1217_">
			<path id="XMLID_1227_" class="st0" d="M824.7-0.5c-47.8,14.1-187.3-40.3-243.8,1.7c-21.8,6.4-28-4.1-28.3-22.5
				c64.5-97.9,158-5.1,245.7-11.4C807.5-21.3,812.9-12.6,824.7-0.5z"/>
			<path id="XMLID_1226_" class="st1" d="M794.3-59.7C643.2-38.8,577.3-38.8,552.9,19c0-13.1,0-22.2-0.2-40.2
				c8.5-79.5,145-84.2,189.3-126.5C753.4-130.1,785.3-72.4,794.3-59.7z"/>
			<rect id="XMLID_1225_" x="581.3" y="13.6" class="st2" width="243.4" height="29.3"/>
			<path id="XMLID_1224_" class="st3" d="M851.3,50.9c-48.2,13.9-213.6-43.9-268-13.4c-23.5,6.7-42.2,12.4-30.5-23.8
				c69.5-103.5,181.1,0,275.5-6.7C834.5,21.1,841.8,37.4,851.3,50.9z"/>
			<g id="XMLID_1221_">
				<path class="st4" d="M573.6,10.8c0,0,0.7-0.7,2-2c0.6-0.6,1.4-1.5,2.5-2.3c0.5-0.4,1.1-0.9,1.6-1.4c0.3-0.2,0.6-0.5,0.9-0.8
					c0.3-0.2,0.7-0.5,1-0.7c1.4-1,2.9-2.2,4.7-3.2c0.9-0.5,1.8-1.1,2.8-1.7c1-0.5,2-1.1,3.1-1.6c4.3-2.1,9.3-4.3,15-5.9
					c11.3-3.3,25.2-5.4,40-4.9c0.9,0,1.9,0.1,2.8,0.1c1,0,1.9,0.1,2.8,0.2c0.9,0.1,1.9,0.1,2.8,0.2c0.9,0.1,1.9,0.2,2.8,0.3
					c1.9,0.2,3.8,0.4,5.7,0.7c1.9,0.2,3.8,0.6,5.7,0.9c7.6,1.3,15.3,3,22.9,4.9c7.6,2,15.1,4.2,22.5,6.5c7.4,2.3,14.6,4.7,21.5,6.8
					c7,2.2,13.7,4.3,20.2,6.1c6.5,1.8,12.6,3.3,18.3,4.5c5.7,1.2,11,2.1,15.7,2.8c2.3,0.4,4.6,0.6,6.6,0.8c2,0.2,3.9,0.3,5.6,0.5
					c3.4,0.2,6.1,0.3,7.9,0.3c1.8,0,2.8,0.1,2.8,0.1s-1,0-2.8,0.1c-1.8,0.1-4.5,0.2-8,0.1c-1.7-0.1-3.6-0.1-5.7-0.2
					c-2.1-0.2-4.3-0.2-6.7-0.5c-4.8-0.4-10.1-1.1-15.9-2.2c-11.6-2.1-24.9-5.4-39-9.6c-7-2.1-14.3-4.3-21.6-6.6
					c-7.4-2.2-14.8-4.4-22.4-6.4c-7.5-2-15.1-3.7-22.6-5c-1.9-0.3-3.8-0.6-5.6-0.9c-1.9-0.3-3.7-0.5-5.6-0.7
					c-0.9-0.1-1.8-0.2-2.8-0.3c-0.9-0.1-1.9-0.2-2.8-0.2c-0.9-0.1-1.9-0.2-2.7-0.2c-0.9,0-1.8-0.1-2.7-0.1
					c-7.2-0.3-14.3-0.2-20.9,0.5c-6.6,0.7-12.8,1.8-18.5,3.3c-5.6,1.5-10.6,3.4-15,5.3c-1.1,0.5-2.1,1-3.1,1.5c-1,0.5-1.9,1-2.8,1.5
					c-1.8,0.9-3.4,2-4.8,2.9c-0.4,0.2-0.7,0.5-1,0.7c-0.3,0.2-0.6,0.5-0.9,0.7c-0.6,0.5-1.2,0.9-1.7,1.3c-1.1,0.8-1.9,1.5-2.6,2.1
					C574.3,10.1,573.6,10.8,573.6,10.8z"/>
			</g>
			<g id="XMLID_1218_">
				<path class="st4" d="M580.1,24.3c0,0,0.8-0.5,2.3-1.5c0.4-0.2,0.8-0.5,1.3-0.8c0.5-0.3,1-0.6,1.6-0.9c0.6-0.3,1.2-0.7,1.8-1
					c0.7-0.3,1.4-0.7,2.1-1c3-1.5,6.8-3,11.3-4.5c4.5-1.5,9.6-2.8,15.3-3.8c5.7-1.1,11.9-1.9,18.5-2.4c6.6-0.5,13.6-0.7,20.8-0.5
					c7.2,0.2,14.7,0.7,22.2,1.5c7.5,0.8,15.1,2,22.7,3.2c7.6,1.3,15.1,2.8,22.5,4.3c7.4,1.5,14.6,3.1,21.6,4.6
					c7,1.4,13.8,2.8,20.2,4c6.5,1.2,12.6,2.2,18.2,3c5.7,0.8,10.9,1.5,15.5,1.9c2.3,0.3,4.5,0.4,6.5,0.6c2,0.1,3.9,0.2,5.5,0.3
					c3.3,0.1,6,0.3,7.8,0.3c1.8,0,2.7,0.1,2.7,0.1s-1,0-2.7,0.1c-1.8,0.1-4.4,0.2-7.8,0.2c-1.7,0-3.5-0.1-5.6-0.1
					c-2-0.1-4.2-0.1-6.5-0.3c-4.7-0.2-9.9-0.6-15.6-1.3c-11.4-1.2-24.7-3.4-38.8-6.1c-7-1.4-14.3-2.8-21.7-4.3
					c-7.4-1.5-14.9-2.9-22.4-4.2c-7.5-1.3-15-2.5-22.5-3.3c-7.4-0.9-14.8-1.5-21.9-1.8c-14.2-0.6-27.6,0.2-38.9,2
					c-5.6,0.9-10.8,1.9-15.2,3.2c-4.5,1.3-8.3,2.5-11.4,3.9c-0.8,0.3-1.5,0.6-2.2,0.9c-0.7,0.3-1.3,0.6-1.9,0.9
					c-0.6,0.3-1.1,0.5-1.6,0.8c-0.5,0.3-0.9,0.5-1.3,0.7C581,23.8,580.1,24.3,580.1,24.3z"/>
			</g>
		</g>
		<path id="XMLID_1216_" class="st2" d="M522.1,37.4l19.1-19.1c6.3-6.3,16.5-6.3,22.8,0l19.1,19.1L552.6,54L522.1,37.4z"/>
		<path id="XMLID_1215_" class="st5" d="M522.4,37.4l19.1-19.1c6.3-6.3,16.5-6.3,22.8,0l19.1,19.1"/>
		<g id="XMLID_1213_">
			<path id="XMLID_1214_" class="st6" d="M254.4,59c78.4-3.9,156.7-7.9,235.1-11.8c11-0.6,22-1.1,32.9-1.7c-2.6-2-5.2-4-7.9-6
				c5.5,15.2,24.1,19.1,38.3,19.4c10.5,0.2,10.5-16,0-16.3c-6.7-0.2-14.8-0.7-20.3-5.2c-1.5-1.2-3.2-4.7-2.3-2.3
				c-1.2-3.3-4.1-6.2-7.9-6c-78.4,3.9-156.7,7.9-235.1,11.8c-11,0.6-22,1.1-32.9,1.7C244,43.2,243.9,59.5,254.4,59L254.4,59z"/>
		</g>
		<g id="XMLID_1211_">
			<path id="XMLID_1212_" class="st6" d="M851.4,42.7c-78.4-3.9-156.7-7.9-235.1-11.8c-11-0.6-22-1.1-32.9-1.7
				c-3.8-0.2-6.7,2.7-7.9,6c0.8-2.2-0.8,1-2.3,2.3c-5.5,4.5-13.5,5-20.3,5.2c-10.5,0.2-10.5,16.5,0,16.3
				c14.2-0.3,32.8-4.2,38.3-19.4c-2.6,2-5.2,4-7.9,6c78.4,3.9,156.7,7.9,235.1,11.8c11,0.6,22,1.1,32.9,1.7
				C861.9,59.5,861.8,43.2,851.4,42.7L851.4,42.7z"/>
		</g>
		<g id="XMLID_1_">
			<path id="XMLID_3_" class="st7" d="M324.9,108.8H340v67.6h-15.1V108.8z"/>
			<path id="XMLID_5_" class="st7" d="M423.2,108.8h15.1v67.6h-15.1L391,134v42.3h-15.1v-67.6H390l33.2,43.5V108.8z"/>
			<path id="XMLID_7_" class="st7" d="M531.1,167c-6.8,6.7-15.2,10-25.2,10c-10,0-18.4-3.3-25.2-10c-6.8-6.7-10.3-15-10.3-24.9
				s3.4-18.2,10.3-24.9c6.8-6.7,15.2-10,25.2-10c10,0,18.4,3.3,25.2,10c6.8,6.7,10.2,15,10.2,24.9S537.9,160.4,531.1,167z
				 M526,142.2c0-6-1.9-11.2-5.8-15.4c-3.9-4.3-8.6-6.4-14.3-6.4c-5.6,0-10.4,2.1-14.2,6.4s-5.8,9.4-5.8,15.4c0,6,1.9,11.2,5.8,15.4
				s8.6,6.3,14.2,6.3c5.6,0,10.4-2.1,14.3-6.3C524,153.3,526,148.2,526,142.2z"/>
			<path id="XMLID_18_" class="st7" d="M573.4,108.8h15.1v27.7l25.5-27.7h18.7l-26.9,29.9c2.3,3.2,6.6,9.2,12.9,18
				c6.3,8.8,10.9,15.4,14,19.7h-17.6l-19.8-26.7l-6.8,7.5v19.1h-15.1V108.8z"/>
			<path id="XMLID_20_" class="st7" d="M707.9,114.8c4.7,4.1,7.1,10.2,7.1,18.6s-2.5,14.4-7.3,18.3c-4.9,3.8-12.3,5.8-22.3,5.8h-9
				v18.8h-15.1v-67.6h23.9C695.6,108.8,703.2,110.8,707.9,114.8z M696.8,141.4c1.8-2,2.7-5,2.7-8.9c0-3.9-1.2-6.7-3.5-8.3
				c-2.4-1.6-6-2.5-11-2.5h-8.6v22.7h10.2C691.6,144.4,695,143.4,696.8,141.4z"/>
			<path id="XMLID_23_" class="st7" d="M790.3,176.3l-6.3-14.6h-28.3l-6.3,14.6h-16l29.2-67.6h14.6l29.2,67.6H790.3z M769.9,128.9
				l-8.5,19.6h16.9L769.9,128.9z"/>
		</g>
	</g>
	<g id="XMLID_1205_">
		<circle id="XMLID_1208_" class="st8" cx="515.7" cy="-151.9" r="6.8"/>
		<circle id="XMLID_1207_" class="st8" cx="551.1" cy="-151.9" r="6.8"/>
		<circle id="XMLID_1206_" class="st8" cx="586.4" cy="-151.9" r="6.8"/>
	</g>
</g>
</svg>
